<svg width="21" height="16" viewBox="0 0 21 16" fill="none" xmlns="http://www.w3.org/2000/svg">
  <path fill-rule="evenodd" clip-rule="evenodd" d="M0.263218 8.62641C0.0946712 8.4602 9.25978e-08 8.2349 9.53991e-08 8C9.82003e-08 7.76509 0.0946712 7.53979 0.263218 7.37359L7.46349 0.282128C7.54589 0.195037 7.64525 0.125184 7.75566 0.0767356C7.86606 0.028287 7.98524 0.00223646 8.10609 0.000136472C8.22694 -0.00196256 8.34698 0.01993 8.45905 0.0645133C8.57112 0.109096 8.67292 0.175454 8.75838 0.259628C8.84385 0.343803 8.91123 0.444069 8.95649 0.554445C9.00176 0.664822 9.02399 0.783045 9.02186 0.902067C9.01973 1.02109 8.99328 1.13847 8.94408 1.24721C8.89489 1.35594 8.82397 1.4538 8.73554 1.53495L3.07132 7.11357L20.1 7.11357C20.3387 7.11357 20.5676 7.20696 20.7364 7.3732C20.9052 7.53944 21 7.7649 21 8C21 8.2351 20.9052 8.46056 20.7364 8.6268C20.5676 8.79304 20.3387 8.88643 20.1 8.88643L3.07132 8.88643L8.73554 14.465C8.82397 14.5462 8.89489 14.6441 8.94408 14.7528C8.99328 14.8615 9.01973 14.9789 9.02186 15.0979C9.02399 15.217 9.00176 15.3352 8.95649 15.4456C8.91123 15.5559 8.84385 15.6562 8.75838 15.7404C8.67292 15.8245 8.57112 15.8909 8.45905 15.9355C8.34698 15.9801 8.22694 16.002 8.10609 15.9999C7.98524 15.9978 7.86606 15.9717 7.75566 15.9233C7.64525 15.8748 7.54589 15.805 7.46349 15.7179L0.263218 8.62641Z" fill="currentColor" />
</svg>