<svg width="24" height="24" viewBox="0 0 24 24" fill="none" xmlns="http://www.w3.org/2000/svg">
  <path d="M5.4927 17.7103L9.9064 12.4603L12.6129 15.6796C12.9543 16.0857 13.504 16.0659 13.8204 15.64L19.7914 7.64612C20.0829 7.2598 20.0662 6.66546 19.7581 6.28905C19.6781 6.19414 19.5826 6.11961 19.4776 6.06998C19.3726 6.02035 19.2602 5.99667 19.1472 6.00038C19.0342 6.00408 18.9231 6.0351 18.8205 6.09154C18.7179 6.14798 18.6261 6.22866 18.5506 6.32867L13.2292 13.4409L10.4893 10.182C10.4123 10.0901 10.3208 10.0173 10.22 9.96758C10.1193 9.91787 10.0113 9.89228 9.90223 9.89228C9.79317 9.89228 9.68517 9.91787 9.58443 9.96758C9.48368 10.0173 9.39217 10.0901 9.31513 10.182L4.24354 16.2244C4.16634 16.3161 4.10509 16.4249 4.0633 16.5447C4.02151 16.6646 4 16.793 4 16.9228C4 17.0525 4.02151 17.181 4.0633 17.3008C4.10509 17.4206 4.16634 17.5295 4.24354 17.6211L4.31849 17.7103C4.64327 18.0966 5.17625 18.0966 5.4927 17.7103Z" fill="currentColor" />
</svg>