<svg width="58" height="58" viewBox="0 0 58 58" fill="none" xmlns="http://www.w3.org/2000/svg">
  <g clip-path="url(#clip0_736_2566)">
    <path fill-rule="evenodd" clip-rule="evenodd" d="M35.9401 14.376C31.6751 14.376 27.506 15.6407 23.9598 18.0102C20.4136 20.3797 17.6497 23.7476 16.0176 27.6879C14.3854 31.6282 13.9584 35.964 14.7904 40.147C15.6225 44.33 17.6763 48.1724 20.692 51.1882C23.7078 54.2039 27.5502 56.2577 31.7332 57.0897C35.9162 57.9218 40.252 57.4948 44.1923 55.8626C48.1326 54.2305 51.5005 51.4666 53.8699 47.9204C56.2394 44.3742 57.5042 40.205 57.5042 35.9401C57.5042 30.2209 55.2322 24.736 51.1882 20.692C47.1441 16.6479 41.6593 14.376 35.9401 14.376ZM35.9401 21.564C33.0968 21.564 30.3173 22.4072 27.9532 23.9868C25.5891 25.5665 23.7465 27.8117 22.6584 30.4386C21.5703 33.0655 21.2856 35.956 21.8403 38.7447C22.395 41.5334 23.7642 44.0949 25.7747 46.1055C27.7852 48.116 30.3468 49.4852 33.1355 50.0399C35.9242 50.5946 38.8147 50.3098 41.4416 49.2218C44.0684 48.1337 46.3137 46.2911 47.8934 43.9269C49.473 41.5628 50.3161 38.7834 50.3161 35.9401C50.3161 32.1273 48.8015 28.4707 46.1055 25.7747C43.4095 23.0786 39.7529 21.564 35.9401 21.564ZM7.18806 0C5.76641 0 4.37669 0.421591 3.19463 1.21142C2.01257 2.00125 1.09126 3.12385 0.547218 4.43728C0.00317383 5.75072 -0.139187 7.19599 0.138165 8.59033C0.415516 9.98467 1.1001 11.2654 2.10537 12.2707C3.11063 13.276 4.39141 13.9605 5.78574 14.2379C7.18008 14.5152 8.62535 14.3729 9.93879 13.8289C11.2522 13.2848 12.3749 12.3635 13.1647 11.1815C13.9545 9.99941 14.3761 8.60967 14.3761 7.18801C14.3761 5.28163 13.6188 3.45333 12.2708 2.10531C10.9227 0.757301 9.09444 0 7.18806 0ZM35.9401 28.7521C34.5185 28.7521 33.1287 29.1736 31.9467 29.9635C30.7646 30.7533 29.8433 31.8759 29.2993 33.1893C28.7552 34.5028 28.6129 35.948 28.8902 37.3424C29.1676 38.7367 29.8522 40.0175 30.8574 41.0228C31.8627 42.028 33.1435 42.7126 34.5378 42.9899C35.9321 43.2673 37.3774 43.125 38.6908 42.5809C40.0043 42.0369 41.1269 41.1156 41.9167 39.9335C42.7066 38.7515 43.1281 37.3617 43.1281 35.9401C43.1281 34.0337 42.3708 32.2054 41.0228 30.8574C39.6748 29.5094 37.8465 28.7521 35.9401 28.7521Z" fill="currentColor" fill-opacity="0.2" />
  </g>
  <defs>
    <clipPath id="clip0_736_2566">
      <rect width="57.5041" height="57.5041" fill="transparent" transform="matrix(-1 0 0 1 57.5042 0)" />
    </clipPath>
  </defs>
</svg>