<svg width="40" height="38" viewBox="0 0 40 38" fill="none" xmlns="http://www.w3.org/2000/svg">
  <g clip-path="url(#clip0_736_2549)">
    <path fill-rule="evenodd" clip-rule="evenodd" d="M36.2984 29.6574H29.6987L20.2166 37.4615C19.8695 37.7236 19.4557 37.8828 19.0224 37.921C18.5892 37.9592 18.1539 37.8748 17.7663 37.6775C17.3787 37.4802 17.0544 37.1778 16.8303 36.805C16.6063 36.4322 16.4916 36.004 16.4993 35.5691V29.6574H3.29993C2.86268 29.6535 2.43047 29.5635 2.02799 29.3926C1.62552 29.2217 1.26066 28.9732 0.954242 28.6612C0.647819 28.3493 0.405834 27.9801 0.242118 27.5746C0.0784018 27.1691 -0.00384035 26.7354 7.71631e-05 26.2981V3.3642C-0.00471279 2.92648 0.0769104 2.4921 0.240255 2.08597C0.403599 1.67984 0.645445 1.30992 0.951976 0.997416C1.25851 0.684909 1.62368 0.435956 2.02658 0.264799C2.42948 0.0936434 2.86219 0.00366328 3.29993 0H36.2984C37.1812 0.00784278 38.0247 0.365973 38.6435 0.995604C39.2623 1.62523 39.6057 2.47482 39.5983 3.3576V26.2915C39.603 26.7293 39.5215 27.1638 39.3581 27.57C39.1948 27.9762 38.953 28.3462 38.6465 28.6589C38.3399 28.9715 37.9748 29.2207 37.5718 29.392C37.1689 29.5633 36.7362 29.6535 36.2984 29.6574Z" fill="currentColor" fill-opacity="0.2" />
  </g>
  <defs>
    <clipPath id="clip0_736_2549">
      <rect width="39.5982" height="37.9482" fill="transparent" />
    </clipPath>
  </defs>
</svg>