<svg width="16" height="16" viewBox="0 0 16 16" fill="none" xmlns="http://www.w3.org/2000/svg">
  <path d="M1.71484 3.8577C1.71484 3.28938 1.94061 2.74434 2.34247 2.34247C2.74434 1.94061 3.28938 1.71484 3.8577 1.71484H7.57199V7.57199H1.71484V3.8577ZM1.71484 8.42913V12.1434C1.71484 12.7117 1.94061 13.2568 2.34247 13.6586C2.74434 14.0605 3.28938 14.2863 3.8577 14.2863H7.57199V8.42913H1.71484ZM8.42913 14.2863H12.1434C12.7117 14.2863 13.2568 14.0605 13.6586 13.6586C14.0605 13.2568 14.2863 12.7117 14.2863 12.1434V8.42913H8.42913V14.2863ZM14.2863 7.57199V3.8577C14.2863 3.28938 14.0605 2.74434 13.6586 2.34247C13.2568 1.94061 12.7117 1.71484 12.1434 1.71484H8.42913V7.57199H14.2863Z" fill="currentColor" />
</svg>