<svg xmlns="http://www.w3.org/2000/svg" xmlns:xlink="http://www.w3.org/1999/xlink"><symbol fill="none" viewBox="0 0 30 30" id="acc-arrow" xmlns="http://www.w3.org/2000/svg"><path fill-rule="evenodd" clip-rule="evenodd" d="M29.898 28.149a1.75 1.75 0 0 1-1.75 1.749H8.35a1.75 1.75 0 1 1 0-3.498h15.575L.513 2.988A1.75 1.75 0 1 1 2.987.513L26.4 23.925V8.35a1.75 1.75 0 1 1 3.498 0v19.799Z" fill="currentColor"/></symbol><symbol fill="none" viewBox="0 0 24 24" id="burger" xmlns="http://www.w3.org/2000/svg"><path d="M4 18a.965.965 0 0 1-.712-.288A.972.972 0 0 1 3 17c0-.283.095-.52.288-.712A.97.97 0 0 1 4 16h16c.283 0 .521.096.713.288.192.192.288.43.287.712 0 .283-.097.52-.288.713A.957.957 0 0 1 20 18H4Zm0-5a.965.965 0 0 1-.712-.288A.972.972 0 0 1 3 12c0-.283.095-.52.288-.712A.97.97 0 0 1 4 11h16c.283 0 .521.096.713.288.192.192.288.43.287.712 0 .283-.097.52-.288.713A.957.957 0 0 1 20 13H4Zm0-5a.965.965 0 0 1-.712-.288A.972.972 0 0 1 3 7c0-.283.095-.52.288-.712A.97.97 0 0 1 4 6h16c.283 0 .521.096.713.288.192.192.288.43.287.712 0 .283-.097.52-.288.713A.957.957 0 0 1 20 8H4Z" fill="currentColor"/></symbol><symbol fill="none" viewBox="0 0 14 8" id="caret" xmlns="http://www.w3.org/2000/svg"><path d="M13.71.296a1 1 0 0 0-1.42 0l-4.58 4.58a1 1 0 0 1-1.42 0L1.71.296a1 1 0 1 0-1.42 1.41l4.59 4.59a3 3 0 0 0 4.24 0l4.59-4.59a1 1 0 0 0 0-1.41Z" fill="currentColor"/></symbol><symbol fill="none" viewBox="0 0 24 24" id="chart" xmlns="http://www.w3.org/2000/svg"><path d="m5.493 17.71 4.413-5.25 2.707 3.22c.341.406.891.386 1.207-.04l5.971-7.994c.292-.386.275-.98-.033-1.357a.836.836 0 0 0-.28-.219.716.716 0 0 0-.658.022.86.86 0 0 0-.27.237l-5.32 7.112-2.74-3.259a.835.835 0 0 0-.27-.214.716.716 0 0 0-.636 0 .836.836 0 0 0-.269.214l-5.071 6.042c-.078.092-.139.2-.18.32a1.151 1.151 0 0 0 0 .757c.041.12.102.229.18.32l.074.09c.325.386.858.386 1.175 0Z" fill="currentColor"/></symbol><symbol fill="none" viewBox="0 0 9 7" id="check" xmlns="http://www.w3.org/2000/svg"><path d="m.75 3.094 2.344 2.344L7.78.75" stroke="currentColor" stroke-width="1.5" stroke-linecap="round" stroke-linejoin="round"/></symbol><symbol fill="none" viewBox="0 0 18 18" id="close" xmlns="http://www.w3.org/2000/svg"><path d="M17 17 1 1m16 0L1 17" stroke="currentColor" stroke-width="2" stroke-linecap="round"/></symbol><symbol fill="none" viewBox="0 0 20 20" id="diamand" xmlns="http://www.w3.org/2000/svg"><path d="M3.77 6.167 2 4.396l1.188-1.167L4.957 5 3.771 6.167ZM9.126 4.5V2h1.667v2.5H9.125Zm6.98 1.667-1.188-1.188 1.77-1.77 1.188 1.187-1.77 1.77Zm-6.147 12.5L3.23 12h13.459l-6.73 6.667Zm-3.333-12.5h6.667l3.416 4.166h-13.5l3.417-4.166Z" fill="currentColor"/></symbol><symbol fill="none" viewBox="0 0 16 15" id="edino" xmlns="http://www.w3.org/2000/svg"><path d="M10.823 7.12c.48-.678 1.566-.72 2.103-.068l2.22 2.697.326.397a.995.995 0 0 1 .066 1.171c-.14.215-.287.441-.39.595-.296.445-.628.865-.99 1.257-.704.743-1.496 1.25-2.37 1.25-.66 0-1.245-.27-1.865-.671-.574-.372-1.109-.803-1.7-1.15l-.267-.15c-.306-.16-.447-.587-.249-.87l2.636-3.757-.008-.006.488-.694m-6.919-.534c.66 0 1.245.27 1.865.672.66.427 1.268.933 1.967 1.299l.171.092c.228.118.34.419.193.628l-3.23 4.607-.097.12c-.482.525-1.374.56-1.9.064l-.107-.114-2.545-3.09a1.01 1.01 0 0 1-.068-1.166c.411-.655.848-1.298 1.381-1.861.704-.743 1.496-1.251 2.37-1.251ZM11.345 0a2.501 2.501 0 1 1 0 5.002 2.501 2.501 0 0 1 0-5.002Zm-7 0a2.5 2.5 0 1 1 0 5 2.5 2.5 0 0 1 0-5Z" fill="currentColor"/></symbol><symbol fill="none" viewBox="0 0 44 44" id="in" xmlns="http://www.w3.org/2000/svg"><path d="M34.332 5.42a3.614 3.614 0 0 1 3.614 3.615v25.297a3.613 3.613 0 0 1-3.614 3.614H9.035a3.614 3.614 0 0 1-3.614-3.614V9.035A3.614 3.614 0 0 1 9.035 5.42h25.297Zm-.904 28.008v-9.576a5.89 5.89 0 0 0-5.89-5.891c-1.536 0-3.325.94-4.192 2.35v-2.007h-5.042v15.124h5.042V24.52c0-1.391 1.12-2.53 2.511-2.53a2.53 2.53 0 0 1 2.53 2.53v8.908h5.041Zm-20.996-17.96a3.036 3.036 0 0 0 3.035-3.036c0-1.68-1.355-3.054-3.035-3.054a3.054 3.054 0 0 0-3.054 3.054c0 1.68 1.373 3.035 3.054 3.035Zm2.511 17.96V18.304H9.938v15.124h5.005Z" fill="currentColor"/></symbol><symbol fill="none" viewBox="0 0 44 44" id="insta" xmlns="http://www.w3.org/2000/svg"><path d="M23.54 3.611c2.032.006 3.064.017 3.955.042l.35.013c.405.014.805.032 1.287.054 1.923.09 3.234.394 4.385.84a8.81 8.81 0 0 1 3.202 2.083 8.854 8.854 0 0 1 2.084 3.202c.446 1.151.75 2.463.84 4.387.022.481.04.88.054 1.287l.011.35c.027.89.038 1.921.041 3.954l.002 1.348v2.367c.005 1.318-.01 2.636-.041 3.954l-.011.35c-.014.407-.033.806-.054 1.287-.09 1.924-.398 3.234-.842 4.387a8.853 8.853 0 0 1-2.084 3.202 8.854 8.854 0 0 1-3.202 2.083c-1.15.447-2.462.75-4.385.84l-1.287.055-.35.01c-.89.026-1.923.039-3.956.042l-1.348.002h-2.365c-1.318.005-2.637-.01-3.955-.041l-.35-.011c-.43-.017-.859-.035-1.287-.056-1.923-.09-3.235-.394-4.387-.84a8.853 8.853 0 0 1-3.2-2.084 8.854 8.854 0 0 1-2.086-3.202c-.446-1.15-.75-2.463-.84-4.387l-.054-1.287-.01-.35a142.765 142.765 0 0 1-.044-3.954v-3.715c-.005-1.318.008-2.636.04-3.953l.012-.351c.014-.406.033-.806.054-1.287.09-1.924.394-3.234.84-4.387a8.854 8.854 0 0 1 2.09-3.202A8.854 8.854 0 0 1 9.846 4.56c1.152-.446 2.462-.75 4.387-.84.48-.022.882-.04 1.286-.054l.35-.011c1.319-.032 2.636-.046 3.954-.042l3.715-.002Zm-1.858 9.035a9.035 9.035 0 1 0 0 18.07 9.035 9.035 0 0 0 0-18.07Zm0 3.614a5.421 5.421 0 1 1-.002 10.843 5.421 5.421 0 0 1 .004-10.843m9.486-6.324a2.259 2.259 0 1 0 0 4.517 2.259 2.259 0 0 0 0-4.517Z" fill="currentColor"/></symbol><symbol fill="none" viewBox="0 0 9 16" id="left-chevron" xmlns="http://www.w3.org/2000/svg"><path d="M8 15 1 8l7-7" stroke="currentColor" stroke-width="2" stroke-linecap="round" stroke-linejoin="round"/></symbol><symbol fill="none" viewBox="0 0 60 60" id="our-1" xmlns="http://www.w3.org/2000/svg"><path d="M29.744 52.051c12.32 0 22.307-9.987 22.307-22.308 0-12.32-9.987-22.307-22.308-22.307-12.32 0-22.307 9.987-22.307 22.307 0 12.32 9.987 22.308 22.308 22.308Z" fill="currentColor" fill-opacity=".2"/><path d="M29.744 13.137c0-.355 0-.53.114-.64.113-.109.287-.104.63-.089a17.35 17.35 0 1 1-15.386 26.645c-.183-.287-.275-.433-.238-.587.037-.154.191-.243.496-.42l14.012-8.087c.18-.106.272-.158.322-.245.05-.084.05-.191.05-.4V13.138Z" fill="transparent"/></symbol><symbol fill="none" viewBox="0 0 58 58" id="our-2" xmlns="http://www.w3.org/2000/svg"><g clip-path="url(#a)"><path fill-rule="evenodd" clip-rule="evenodd" d="M35.94 14.376a21.564 21.564 0 1 0 0 43.128 21.564 21.564 0 0 0 0-43.128Zm0 7.188a14.376 14.376 0 1 0 0 28.753 14.376 14.376 0 0 0 0-28.753ZM7.188 0a7.188 7.188 0 1 0 0 14.376A7.188 7.188 0 0 0 7.188 0ZM35.94 28.752a7.187 7.187 0 1 0 0 14.375 7.187 7.187 0 0 0 0-14.375Z" fill="currentColor" fill-opacity=".2"/></g><defs><clipPath id="a"><path fill="transparent" transform="matrix(-1 0 0 1 57.504 0)" d="M0 0h57.504v57.504H0z"/></clipPath></defs></symbol><symbol fill="none" viewBox="0 0 40 38" id="our-3" xmlns="http://www.w3.org/2000/svg"><g clip-path="url(#a)"><path fill-rule="evenodd" clip-rule="evenodd" d="M36.298 29.657h-6.6l-9.481 7.805a2.32 2.32 0 0 1-3.718-1.893v-5.912H3.3A3.33 3.33 0 0 1 0 26.298V3.364A3.328 3.328 0 0 1 3.3 0h32.998a3.33 3.33 0 0 1 3.3 3.358V26.29a3.33 3.33 0 0 1-3.3 3.366Z" fill="currentColor" fill-opacity=".2"/></g><defs><clipPath id="a"><path fill="transparent" d="M0 0h39.598v37.948H0z"/></clipPath></defs></symbol><symbol fill="none" viewBox="0 0 42 42" id="our-4" xmlns="http://www.w3.org/2000/svg"><g clip-path="url(#a)"><path fill-rule="evenodd" clip-rule="evenodd" d="M3.47 0h20.82a3.47 3.47 0 0 1 3.47 3.47v20.82a3.47 3.47 0 0 1-3.47 3.47H3.47A3.47 3.47 0 0 1 0 24.29V3.47A3.47 3.47 0 0 1 3.47 0Zm13.88 13.88h20.82a3.47 3.47 0 0 1 3.47 3.47v20.82a3.47 3.47 0 0 1-3.47 3.47H17.35a3.47 3.47 0 0 1-3.47-3.47V17.35a3.47 3.47 0 0 1 3.47-3.47Z" fill="currentColor" fill-opacity=".2"/></g><defs><clipPath id="a"><path fill="transparent" d="M0 0h41.641v41.641H0z"/></clipPath></defs></symbol><symbol fill="none" viewBox="0 0 53 53" id="our-5" xmlns="http://www.w3.org/2000/svg"><path d="M14.471 24.073c4.938 0 8.073 4.423 11.942 6 .534.218.786.881.457 1.357l-9.24 13.316a3.776 3.776 0 0 1-6.022.24l-7.755-9.464a1.587 1.587 0 0 1-.178-1.774c2.19-3.963 6.422-9.673 10.796-9.675Zm20.332 1.603a3.776 3.776 0 0 1 6.023-.241l7.753 9.465a1.58 1.58 0 0 1 .18 1.773c-2.192 3.963-6.422 9.673-10.797 9.673-4.937 0-8.072-4.42-11.939-5.999-.536-.217-.788-.88-.46-1.357l9.24-13.314ZM15.325 6.568a6.568 6.568 0 1 1 0 13.137 6.568 6.568 0 0 1 0-13.137Zm21.895 0a6.568 6.568 0 1 1 0 13.137 6.568 6.568 0 0 1 0-13.137Z" fill="currentColor" fill-opacity=".2"/></symbol><symbol fill="none" viewBox="0 0 61 61" id="our-6" xmlns="http://www.w3.org/2000/svg"><path fill-rule="evenodd" clip-rule="evenodd" d="m8.514 23.973 18.461 24.343a4.098 4.098 0 0 0 6.43 0l18.459-24.343a4.536 4.536 0 0 0 .206-5.387l-4.266-6.217a4.172 4.172 0 0 0-3.435-1.842h-28.36a4.172 4.172 0 0 0-3.435 1.842l-4.265 6.217a4.536 4.536 0 0 0 .205 5.387Z" fill="currentColor" fill-opacity=".2"/></symbol><symbol fill="none" viewBox="0 0 20 20" id="plus" xmlns="http://www.w3.org/2000/svg"><path d="M10 1v18M1 10h18" stroke="currentColor" stroke-width="2" stroke-linecap="round" stroke-linejoin="round"/></symbol><symbol fill="none" viewBox="0 0 25 25" id="relax" xmlns="http://www.w3.org/2000/svg"><path d="M7 11.669c2.034 0 3.143 1.3 4.167 2.483 1.023 1.182 2.132 2.483 4.166 2.483M11.167 9c2.034 0 3.143 1.302 4.166 2.483 1.024 1.183 2.133 2.484 4.167 2.484" stroke="currentColor" stroke-width="2" stroke-linecap="round" stroke-linejoin="round"/></symbol><symbol fill="none" viewBox="0 0 9 16" id="right-chevron" xmlns="http://www.w3.org/2000/svg"><path d="m1 15 7-7-7-7" stroke="currentColor" stroke-width="2" stroke-linecap="round" stroke-linejoin="round"/></symbol><symbol fill="none" viewBox="0 0 16 16" id="show" xmlns="http://www.w3.org/2000/svg"><path d="M8 6a2 2 0 1 0 0 4 2 2 0 0 0 0-4Zm0 5.333a3.333 3.333 0 1 1 0-6.666 3.333 3.333 0 0 1 0 6.666ZM8 3C4.665 3 1.82 5.073.665 8c1.153 2.927 4 5 7.333 5 3.334 0 6.18-2.073 7.334-5-1.154-2.927-4-5-7.334-5Z" fill="currentColor"/></symbol><symbol fill="none" viewBox="0 0 16 16" id="table" xmlns="http://www.w3.org/2000/svg"><path d="M1.715 3.858a2.143 2.143 0 0 1 2.143-2.143h3.714v5.857H1.715V3.858Zm0 4.571v3.714a2.143 2.143 0 0 0 2.143 2.143h3.714V8.43H1.715Zm6.714 5.857h3.714a2.143 2.143 0 0 0 2.143-2.143V8.43H8.43v5.857Zm5.857-6.714V3.858a2.143 2.143 0 0 0-2.143-2.143H8.43v5.857h5.857Z" fill="currentColor"/></symbol><symbol fill="none" viewBox="0 0 48 48" id="youtube" xmlns="http://www.w3.org/2000/svg"><path d="m19.872 29.817 10.316-5.963-10.316-5.963v11.926Zm22.977-15.563c.258.934.437 2.186.556 3.776.14 1.59.2 2.962.2 4.154l.118 1.67c0 4.353-.318 7.553-.874 9.6-.497 1.789-1.65 2.942-3.439 3.439-.934.258-2.643.437-5.267.556-2.584.14-4.95.199-7.136.199l-3.16.12c-8.328 0-13.516-.319-15.563-.875-1.789-.497-2.942-1.65-3.439-3.439-.258-.934-.437-2.186-.556-3.776a47.825 47.825 0 0 1-.199-4.155l-.12-1.67c0-4.352.319-7.552.875-9.6.497-1.788 1.65-2.941 3.439-3.438.934-.258 2.643-.437 5.267-.556 2.584-.14 4.95-.2 7.136-.2l3.16-.119c8.328 0 13.516.319 15.563.875 1.79.497 2.942 1.65 3.439 3.439Z" fill="currentColor"/></symbol></svg>