<svg width="30" height="30" viewBox="0 0 30 30" fill="none" xmlns="http://www.w3.org/2000/svg">
  <path fill-rule="evenodd" clip-rule="evenodd" d="M29.8976 28.1487C29.8973 28.6125 29.713 29.0572 29.3851 29.3851C29.0571 29.713 28.6125 29.8974 28.1487 29.8976L8.34972 29.8976C8.11486 29.9059 7.88073 29.8668 7.6613 29.7827C7.44188 29.6985 7.24165 29.571 7.07257 29.4078C6.90349 29.2446 6.76901 29.049 6.67717 28.8327C6.58532 28.6163 6.53799 28.3837 6.53799 28.1487C6.53799 27.9137 6.58532 27.6811 6.67717 27.4648C6.76901 27.2485 6.90349 27.0529 7.07257 26.8897C7.24165 26.7264 7.44188 26.5989 7.66131 26.5148C7.88073 26.4306 8.11486 26.3915 8.34972 26.3998L23.9249 26.3998L0.51262 2.98752C0.18443 2.65933 5.50384e-05 2.21421 5.63871e-05 1.75008C5.50384e-05 1.28595 0.184432 0.840833 0.51262 0.512645C0.840808 0.184456 1.28593 8.09808e-05 1.75005 8.16551e-05C2.21418 7.96321e-05 2.6593 0.184455 2.98749 0.512645L26.3998 23.925L26.3998 8.34975C26.3915 8.11488 26.4306 7.88075 26.5148 7.66133C26.5989 7.4419 26.7264 7.24168 26.8896 7.0726C27.0529 6.90351 27.2485 6.76904 27.4648 6.67719C27.6811 6.58535 27.9137 6.53801 28.1487 6.53801C28.3837 6.53801 28.6163 6.58535 28.8326 6.67719C29.049 6.76904 29.2446 6.90351 29.4078 7.0726C29.571 7.24168 29.6985 7.4419 29.7827 7.66133C29.8668 7.88075 29.9059 8.11488 29.8976 8.34974L29.8976 28.1487Z" fill="currentColor" />
</svg>