<svg width="21" height="16" viewBox="0 0 21 16" fill="none" xmlns="http://www.w3.org/2000/svg">
  <path fill-rule="evenodd" clip-rule="evenodd" d="M20.7368 7.37359C20.9053 7.5398 21 7.7651 21 8C21 8.23491 20.9053 8.46021 20.7368 8.62641L13.5365 15.7179C13.4541 15.805 13.3547 15.8748 13.2443 15.9233C13.1339 15.9717 13.0148 15.9978 12.8939 15.9999C12.7731 16.002 12.653 15.9801 12.541 15.9355C12.4289 15.8909 12.3271 15.8245 12.2416 15.7404C12.1561 15.6562 12.0888 15.5559 12.0435 15.4456C11.9982 15.3352 11.976 15.217 11.9781 15.0979C11.9803 14.9789 12.0067 14.8615 12.0559 14.7528C12.1051 14.6441 12.176 14.5462 12.2645 14.465L17.9287 8.88643L0.900031 8.88643C0.661328 8.88643 0.432401 8.79304 0.26361 8.6268C0.094821 8.46056 -2.86336e-06 8.2351 -2.85309e-06 8C-2.84281e-06 7.7649 0.094821 7.53944 0.26361 7.3732C0.432401 7.20696 0.661328 7.11357 0.900031 7.11357L17.9287 7.11357L12.2645 1.53496C12.176 1.4538 12.1051 1.35594 12.0559 1.24721C12.0067 1.13847 11.9803 1.02109 11.9781 0.902069C11.976 0.783048 11.9982 0.664822 12.0435 0.554446C12.0888 0.444069 12.1561 0.343803 12.2416 0.259629C12.3271 0.175455 12.4289 0.109097 12.541 0.0645146C12.653 0.0199318 12.7731 -0.0019624 12.8939 0.000137601C13.0148 0.0022376 13.1339 0.0282887 13.2443 0.0767375C13.3547 0.125186 13.4541 0.19504 13.5365 0.282131L20.7368 7.37359Z" fill="currentColor" />
</svg>