<svg width="16" height="15" viewBox="0 0 16 15" fill="none" xmlns="http://www.w3.org/2000/svg">
  <path d="M10.8233 7.12C11.3033 6.442 12.3894 6.4 12.9264 7.052L15.1464 9.749L15.4724 10.146C15.606 10.309 15.6844 10.5103 15.6962 10.7207C15.7081 10.9312 15.6528 11.14 15.5384 11.317C15.3984 11.532 15.2514 11.758 15.1474 11.912C14.8515 12.3568 14.5204 12.7771 14.1574 13.169C13.4544 13.912 12.6624 14.419 11.7874 14.419C11.1274 14.419 10.5434 14.149 9.92335 13.748C9.34935 13.376 8.81435 12.945 8.22335 12.598L7.95635 12.448C7.65035 12.288 7.50935 11.861 7.70735 11.578L10.3434 7.821L10.3354 7.815L10.8233 7.121M3.90435 6.587C4.56435 6.587 5.14935 6.857 5.76935 7.259C6.42935 7.686 7.03735 8.192 7.73635 8.558L7.90735 8.65C8.13535 8.768 8.24735 9.069 8.10035 9.278L4.87035 13.885L4.77335 14.005C4.29135 14.53 3.39935 14.565 2.87335 14.069L2.76635 13.955L0.22135 10.865C0.0906415 10.7016 0.0138948 10.5017 0.00171371 10.2928C-0.0104674 10.084 0.0425185 9.87646 0.153351 9.699C0.564351 9.044 1.00135 8.401 1.53435 7.838C2.23835 7.095 3.03035 6.587 3.90435 6.587ZM11.3454 5.00524e-08C12.0087 0.000132658 12.6447 0.263757 13.1137 0.732879C13.5826 1.202 13.846 1.83819 13.8458 2.5015C13.8457 3.16481 13.5821 3.80089 13.113 4.26983C12.6438 4.73876 12.0077 5.00213 11.3443 5.002C11.0159 5.00193 10.6907 4.93718 10.3873 4.81143C10.0839 4.68568 9.80822 4.50141 9.57602 4.26912C9.10709 3.8 8.84372 3.16381 8.84385 2.5005C8.84398 1.83719 9.10761 1.20111 9.57673 0.732173C10.0459 0.263238 10.682 -0.000132558 11.3454 5.00524e-08ZM4.34535 5.00524e-08C5.00839 5.00524e-08 5.64428 0.263392 6.11312 0.732233C6.58196 1.20107 6.84535 1.83696 6.84535 2.5C6.84535 3.16304 6.58196 3.79893 6.11312 4.26777C5.64428 4.73661 5.00839 5 4.34535 5C3.68231 5 3.04642 4.73661 2.57758 4.26777C2.10874 3.79893 1.84535 3.16304 1.84535 2.5C1.84535 1.83696 2.10874 1.20107 2.57758 0.732233C3.04642 0.263392 3.68231 5.00524e-08 4.34535 5.00524e-08Z" fill="currentColor" />
</svg>