<svg width="44" height="44" viewBox="0 0 44 44" fill="none" xmlns="http://www.w3.org/2000/svg">
  <path d="M34.3318 5.4209C35.2903 5.4209 36.2095 5.80164 36.8872 6.47938C37.565 7.15711 37.9457 8.07631 37.9457 9.03477V34.3319C37.9457 35.2904 37.565 36.2096 36.8872 36.8873C36.2095 37.565 35.2903 37.9458 34.3318 37.9458H9.03471C8.07625 37.9458 7.15705 37.565 6.47932 36.8873C5.80158 36.2096 5.42084 35.2904 5.42084 34.3319V9.03477C5.42084 8.07631 5.80158 7.15711 6.47932 6.47938C7.15705 5.80164 8.07625 5.4209 9.03471 5.4209H34.3318ZM33.4284 33.4284V23.8517C33.4284 22.2894 32.8078 20.7911 31.703 19.6864C30.5983 18.5817 29.1 17.961 27.5378 17.961C26.0019 17.961 24.213 18.9007 23.3457 20.3101V18.3044H18.3043V33.4284H23.3457V24.5202C23.3457 23.1289 24.466 21.9905 25.8573 21.9905C26.5282 21.9905 27.1717 22.257 27.6461 22.7315C28.1205 23.2059 28.387 23.8493 28.387 24.5202V33.4284H33.4284ZM12.4318 15.4675C13.2369 15.4675 14.009 15.1476 14.5783 14.5783C15.1476 14.0091 15.4674 13.2369 15.4674 12.4318C15.4674 10.7514 14.1122 9.37809 12.4318 9.37809C11.6219 9.37809 10.8451 9.69982 10.2724 10.2725C9.69976 10.8452 9.37803 11.6219 9.37803 12.4318C9.37803 14.1123 10.7513 15.4675 12.4318 15.4675ZM14.9434 33.4284V18.3044H9.93818V33.4284H14.9434Z" fill="currentColor" />
</svg>