<svg width="44" height="44" viewBox="0 0 44 44" fill="none" xmlns="http://www.w3.org/2000/svg">
  <path d="M23.5395 3.61133C25.5723 3.61675 26.6041 3.62759 27.4949 3.65289L27.8454 3.66554C28.2502 3.67999 28.6495 3.69806 29.132 3.71974C31.0546 3.81009 32.3664 4.11366 33.5174 4.55997C34.71 5.01893 35.7147 5.64052 36.7193 6.64337C37.6385 7.54635 38.3495 8.63908 38.8027 9.84526C39.249 10.9963 39.5526 12.3081 39.6429 14.2325C39.6646 14.7132 39.6827 15.1125 39.6971 15.519L39.708 15.8696C39.7351 16.7586 39.7459 17.7904 39.7495 19.8232L39.7514 21.1711V23.5382C39.7557 24.8562 39.7419 26.1742 39.7098 27.4918L39.699 27.8424C39.6845 28.2489 39.6664 28.6483 39.6447 29.1289C39.5544 31.0533 39.2472 32.3633 38.8027 33.5161C38.3495 34.7223 37.6385 35.8151 36.7193 36.718C35.8163 37.6372 34.7236 38.3482 33.5174 38.8014C32.3664 39.2477 31.0546 39.5513 29.132 39.6417L27.8454 39.6959L27.4949 39.7067C26.6041 39.732 25.5723 39.7447 23.5395 39.7483L22.1915 39.7501H19.8263C18.5077 39.7547 17.1891 39.7409 15.8709 39.7085L15.5203 39.6977C15.0914 39.6814 14.6625 39.6628 14.2338 39.6417C12.3112 39.5513 10.9994 39.2477 9.84653 38.8014C8.641 38.348 7.54891 37.637 6.64645 36.718C5.72662 35.8152 5.01498 34.7225 4.56124 33.5161C4.11493 32.3651 3.81136 31.0533 3.72102 29.1289L3.66681 27.8424L3.65777 27.4918C3.62446 26.1742 3.60941 24.8562 3.6126 23.5382V19.8232C3.6076 18.5052 3.62085 17.1872 3.65235 15.8696L3.665 15.519C3.67946 15.1125 3.69753 14.7132 3.71921 14.2325C3.80956 12.3081 4.11312 10.9981 4.55944 9.84526C5.01423 8.63859 5.72712 7.54582 6.64826 6.64337C7.55019 5.72463 8.64165 5.01364 9.84653 4.55997C10.9994 4.11366 12.3094 3.81009 14.2338 3.71974C14.7144 3.69806 15.1156 3.67999 15.5203 3.66554L15.8709 3.65469C17.1885 3.62259 18.5065 3.60874 19.8244 3.61313L23.5395 3.61133ZM21.682 12.646C19.2858 12.646 16.9878 13.5979 15.2935 15.2922C13.5992 16.9865 12.6473 19.2846 12.6473 21.6807C12.6473 24.0769 13.5992 26.3749 15.2935 28.0692C16.9878 29.7635 19.2858 30.7154 21.682 30.7154C24.0781 30.7154 26.3761 29.7635 28.0705 28.0692C29.7648 26.3749 30.7167 24.0769 30.7167 21.6807C30.7167 19.2846 29.7648 16.9865 28.0705 15.2922C26.3761 13.5979 24.0781 12.646 21.682 12.646ZM21.682 16.2599C22.3938 16.2598 23.0988 16.3999 23.7565 16.6722C24.4142 16.9445 25.0119 17.3437 25.5153 17.847C26.0188 18.3503 26.4182 18.9478 26.6907 19.6054C26.9632 20.2631 27.1036 20.9679 27.1037 21.6798C27.1038 22.3917 26.9637 23.0966 26.6914 23.7543C26.4191 24.4121 26.0199 25.0097 25.5166 25.5132C25.0133 26.0166 24.4158 26.416 23.7582 26.6885C23.1005 26.9611 22.3957 27.1014 21.6838 27.1015C20.2461 27.1015 18.8673 26.5304 17.8507 25.5138C16.8341 24.4972 16.263 23.1184 16.263 21.6807C16.263 20.243 16.8341 18.8642 17.8507 17.8476C18.8673 16.831 20.2461 16.2599 21.6838 16.2599M31.1702 9.93561C30.5712 9.93561 29.9967 10.1736 29.5731 10.5972C29.1495 11.0207 28.9115 11.5952 28.9115 12.1943C28.9115 12.7933 29.1495 13.3678 29.5731 13.7914C29.9967 14.215 30.5712 14.453 31.1702 14.453C31.7692 14.453 32.3437 14.215 32.7673 13.7914C33.1909 13.3678 33.4289 12.7933 33.4289 12.1943C33.4289 11.5952 33.1909 11.0207 32.7673 10.5972C32.3437 10.1736 31.7692 9.93561 31.1702 9.93561Z" fill="currentColor" />
</svg>