<svg width="61" height="61" viewBox="0 0 61 61" fill="none" xmlns="http://www.w3.org/2000/svg">
  <path fill-rule="evenodd" clip-rule="evenodd" d="M8.51441 23.973L26.9754 48.3155C27.359 48.8008 27.8474 49.1929 28.4041 49.4625C28.9608 49.732 29.5714 49.872 30.1899 49.872C30.8084 49.872 31.4189 49.732 31.9756 49.4625C32.5323 49.1929 33.0207 48.8008 33.4043 48.3155L51.8638 23.973C52.4698 23.2151 52.8168 22.2829 52.8538 21.3133C52.8908 20.3436 52.6159 19.3877 52.0695 18.5859L47.8042 12.3687C47.4248 11.8052 46.9136 11.343 46.3149 11.022C45.7163 10.7011 45.0483 10.5312 44.369 10.5271H16.0092C15.3299 10.5312 14.662 10.7011 14.0633 11.022C13.4646 11.343 12.9534 11.8052 12.574 12.3687L8.30878 18.5859C7.76232 19.3877 7.48741 20.3436 7.52442 21.3133C7.56143 22.2829 7.90842 23.2151 8.51441 23.973Z" fill="currentColor" fill-opacity="0.2" />
</svg>