<svg width="60" height="60" viewBox="0 0 60 60" fill="none" xmlns="http://www.w3.org/2000/svg">
  <path d="M29.7435 52.051C42.0636 52.051 52.0511 42.0636 52.0511 29.7434C52.0511 17.4233 42.0636 7.43579 29.7435 7.43579C17.4233 7.43579 7.43585 17.4233 7.43585 29.7434C7.43585 42.0636 17.4233 52.051 29.7435 52.051Z" fill="currentColor" fill-opacity="0.2" />
  <path d="M29.7435 13.1368C29.7435 12.7823 29.7435 12.6063 29.8575 12.4973C29.9715 12.3882 30.145 12.3932 30.4871 12.408C33.4669 12.536 36.3634 13.4299 38.8971 15.0036C41.4307 16.5773 43.5159 18.7775 44.9514 21.3919C46.3869 24.0063 47.1242 26.9466 47.0921 29.929C47.06 32.9114 46.2597 35.8352 44.7683 38.4181C43.2769 41.0011 41.1449 43.156 38.578 44.6748C36.0111 46.1936 33.096 47.025 30.1141 47.0889C27.1322 47.1527 24.1842 46.4468 21.5547 45.0392C18.9251 43.6317 16.7028 41.57 15.1022 39.0533C14.9188 38.7657 14.8271 38.6195 14.8643 38.4658C14.9015 38.3122 15.0552 38.2229 15.36 38.0469L29.3717 29.9592C29.5526 29.8526 29.6443 29.8006 29.6939 29.7138C29.7435 29.6295 29.7435 29.523 29.7435 29.3147V13.1368Z" fill="transparent" />
</svg>