<svg width="42" height="42" viewBox="0 0 42 42" fill="none" xmlns="http://www.w3.org/2000/svg">
  <g clip-path="url(#clip0_736_2578)">
    <path fill-rule="evenodd" clip-rule="evenodd" d="M3.47007 0H24.2905C25.2108 0 26.0935 0.365593 26.7442 1.01636C27.395 1.66712 27.7606 2.54975 27.7606 3.47007V24.2905C27.7606 25.2108 27.395 26.0935 26.7442 26.7442C26.0935 27.395 25.2108 27.7606 24.2905 27.7606H3.47007C2.54975 27.7606 1.66712 27.395 1.01636 26.7442C0.365593 26.0935 0 25.2108 0 24.2905V3.47007C0 2.54975 0.365593 1.66712 1.01636 1.01636C1.66712 0.365593 2.54975 0 3.47007 0ZM17.3504 13.8803H38.1708C39.0911 13.8803 39.9738 14.2459 40.6245 14.8967C41.2753 15.5474 41.6409 16.4301 41.6409 17.3504V38.1708C41.6409 39.0911 41.2753 39.9738 40.6245 40.6245C39.9738 41.2753 39.0911 41.6409 38.1708 41.6409H17.3504C16.4301 41.6409 15.5474 41.2753 14.8967 40.6245C14.2459 39.9738 13.8803 39.0911 13.8803 38.1708V17.3504C13.8803 16.4301 14.2459 15.5474 14.8967 14.8967C15.5474 14.2459 16.4301 13.8803 17.3504 13.8803Z" fill="currentColor" fill-opacity="0.2" />
  </g>
  <defs>
    <clipPath id="clip0_736_2578">
      <rect width="41.6409" height="41.6409" fill="transparent" />
    </clipPath>
  </defs>
</svg>