<svg width="53" height="53" viewBox="0 0 53 53" fill="none" xmlns="http://www.w3.org/2000/svg">
  <path d="M14.4714 24.073C19.4086 24.073 22.5439 28.4957 26.4127 30.0721C26.9469 30.2911 27.1987 30.9545 26.8703 31.4296L17.6308 44.7458C17.2976 45.2258 16.8577 45.6219 16.3455 45.903C15.8334 46.1841 15.263 46.3425 14.6792 46.3659C14.0954 46.3892 13.5142 46.2768 12.9812 46.0375C12.4482 45.7982 11.9781 45.4385 11.6076 44.9867L3.85259 35.5217C3.64892 35.2778 3.52314 34.9784 3.49152 34.6622C3.4599 34.346 3.52391 34.0276 3.67525 33.7482C5.8647 29.7853 10.0969 24.0752 14.4714 24.073ZM34.8027 25.6757C35.1358 25.1958 35.5758 24.7997 36.088 24.5186C36.6001 24.2375 37.1705 24.079 37.7543 24.0557C38.3381 24.0323 38.9193 24.1447 39.4523 24.384C39.9853 24.6234 40.4554 24.9831 40.8259 25.4349L48.5787 34.8999C48.9947 35.4034 49.0735 36.1041 48.7583 36.6733C46.5666 40.6362 42.3366 46.3463 37.9621 46.3463C33.0249 46.3463 29.8896 41.9258 26.023 40.3472C25.4866 40.1305 25.2348 39.4671 25.5632 38.9898L34.8027 25.6757ZM15.3253 6.56836C17.0674 6.56836 18.738 7.26038 19.9698 8.49219C21.2017 9.72399 21.8937 11.3947 21.8937 13.1367C21.8937 14.8788 21.2017 16.5494 19.9698 17.7812C18.738 19.013 17.0674 19.7051 15.3253 19.7051C13.5833 19.7051 11.9126 19.013 10.6808 17.7812C9.44898 16.5494 8.75696 14.8788 8.75696 13.1367C8.75696 11.3947 9.44898 9.72399 10.6808 8.49219C11.9126 7.26038 13.5833 6.56836 15.3253 6.56836ZM37.2198 6.56836C38.9619 6.56836 40.6326 7.26038 41.8644 8.49219C43.0962 9.72399 43.7882 11.3947 43.7882 13.1367C43.7882 14.8788 43.0962 16.5494 41.8644 17.7812C40.6326 19.013 38.9619 19.7051 37.2198 19.7051C35.4778 19.7051 33.8071 19.013 32.5753 17.7812C31.3435 16.5494 30.6515 14.8788 30.6515 13.1367C30.6515 11.3947 31.3435 9.72399 32.5753 8.49219C33.8071 7.26038 35.4778 6.56836 37.2198 6.56836Z" fill="currentColor" fill-opacity="0.2" />
</svg>