<svg width="48" height="48" viewBox="0 0 48 48" fill="none" xmlns="http://www.w3.org/2000/svg">
  <path d="M19.8718 29.8167L30.1876 23.8538L19.8718 17.891V29.8167ZM42.8488 14.2536C43.1072 15.1878 43.2861 16.44 43.4053 18.0301C43.5445 19.6202 43.6041 20.9917 43.6041 22.1842L43.7234 23.8538C43.7234 28.2068 43.4053 31.4068 42.8488 33.4541C42.3519 35.243 41.1991 36.3958 39.4102 36.8927C38.476 37.1511 36.7666 37.33 34.143 37.4492C31.5591 37.5884 29.1938 37.648 27.0074 37.648L23.847 37.7673C15.5189 37.7673 10.3312 37.4492 8.28389 36.8927C6.49503 36.3958 5.3422 35.243 4.84529 33.4541C4.5869 32.5199 4.40801 31.2677 4.28875 29.6776C4.14962 28.0875 4.08999 26.716 4.08999 25.5235L3.97073 23.8538C3.97073 19.5009 4.28875 16.3008 4.84529 14.2536C5.3422 12.4647 6.49503 11.3119 8.28389 10.815C9.21808 10.5566 10.9274 10.3777 13.5511 10.2585C16.135 10.1193 18.5003 10.0597 20.6867 10.0597L23.847 9.94043C32.1752 9.94043 37.3629 10.2585 39.4102 10.815C41.1991 11.3119 42.3519 12.4647 42.8488 14.2536Z" fill="currentColor" />
</svg>